<?xml version="1.0" encoding="utf-8"?>
<!-- Generator: Adobe Illustrator 15.0.2, SVG Export Plug-In . SVG Version: 6.00 Build 0)  -->
<!DOCTYPE svg PUBLIC "-//W3C//DTD SVG 1.1//EN" "http://www.w3.org/Graphics/SVG/1.1/DTD/svg11.dtd">
<svg version="1.1" xmlns="http://www.w3.org/2000/svg" xmlns:xlink="http://www.w3.org/1999/xlink" x="0px" y="0px" width="800px"
	 height="700px" viewBox="0 0 800 700" enable-background="new 0 0 800 700" xml:space="preserve">
<g id="Background">
</g>
<g id="blue">
	<g>
		<g>
			<radialGradient id="SVGID_1_" cx="313" cy="217" r="483.4786" gradientUnits="userSpaceOnUse">
				<stop  offset="0" style="stop-color:#5CC9FF"/>
				<stop  offset="1" style="stop-color:#0091D9"/>
			</radialGradient>
			<path fill="url(#SVGID_1_)" d="M287.583,210.583c29.602-33.1,74.853-50.605,120.629-46.698
				C513.547,172.878,626.538,277.05,584.417,402.8c-39.051,116.557-164.679,176.054-291.099,104.184
				c-57.021-32.421-91.883-98.805-81.265-160.348c0.773-4.517,13.713-57.201,33.236-57.201
				c-4.864,41.221,4.822,149.156,97.832,174.449c85.163,23.15,173.272-42.384,168.267-105.544
				c-5.973-75.381-77.337-92.57-100.951-87.605c-10.093,2.127-26.483,5.761-11.566,15.843
				c15.786,10.668,34.256,22.603,34.256,64.142c0,41.528-53.854,48.494-78.139,46.18
				C281.812,389.922,239.191,264.672,287.583,210.583z"/>
		</g>
		<g>
			<radialGradient id="SVGID_2_" cx="313" cy="217" r="483.4803" gradientUnits="userSpaceOnUse">
				<stop  offset="0" style="stop-color:#5CC9FF"/>
				<stop  offset="1" style="stop-color:#0091D9"/>
			</radialGradient>
			<path fill="url(#SVGID_2_)" d="M304.02,553.303c0,32.496-19.118,63.72-57.334,50.965c6.369-31.826,25.473-57.33,50.947-70.058
				C304.02,534.21,304.02,546.938,304.02,553.303z"/>
		</g>
		<g>
			<radialGradient id="SVGID_3_" cx="313" cy="217" r="483.4806" gradientUnits="userSpaceOnUse">
				<stop  offset="0" style="stop-color:#5CC9FF"/>
				<stop  offset="1" style="stop-color:#0091D9"/>
			</radialGradient>
			<path fill="url(#SVGID_3_)" d="M402.189,571.999c3.095-12.36,9.031-8.484,12.727-6.376
				c12.777,19.117,19.118,44.592,12.777,70.075c-6.39,12.74-37.712,11.684-38.256,6.372
				C389.437,616.576,395.811,597.492,402.189,571.999z"/>
		</g>
		<g>
			<radialGradient id="SVGID_4_" cx="313" cy="217.0005" r="483.4813" gradientUnits="userSpaceOnUse">
				<stop  offset="0" style="stop-color:#5CC9FF"/>
				<stop  offset="1" style="stop-color:#0091D9"/>
			</radialGradient>
			<path fill="url(#SVGID_4_)" d="M407.548,124.123c-3.099,12.359-9.004,8.498-12.724,6.376
				c-12.759-19.118-19.11-44.612-12.759-70.076c6.39-12.752,37.709-11.697,38.23-6.39
				C420.296,79.537,413.927,98.639,407.548,124.123z"/>
		</g>
		<g>
			<radialGradient id="SVGID_5_" cx="313" cy="217" r="483.479" gradientUnits="userSpaceOnUse">
				<stop  offset="0" style="stop-color:#5CC9FF"/>
				<stop  offset="1" style="stop-color:#0091D9"/>
			</radialGradient>
			<path fill="url(#SVGID_5_)" d="M538.752,540.834c20.553,10.273,57.339,38.25,31.863,50.973
				c-25.498,12.727-44.601-19.103-63.714-38.231C513.292,547.21,526.015,534.458,538.752,540.834z"/>
		</g>
		<g>
			<radialGradient id="SVGID_6_" cx="313.0005" cy="217" r="483.4822" gradientUnits="userSpaceOnUse">
				<stop  offset="0" style="stop-color:#5CC9FF"/>
				<stop  offset="1" style="stop-color:#0091D9"/>
			</radialGradient>
			<path fill="url(#SVGID_6_)" d="M263.824,180.009c-27.667,1.159-59.212-36.925-36.356-64.041c5.548-6.599,16.624-3.806,22.172,0
				c19.373,13.31,41.707,49.49,27.691,66.456C270.754,190.408,272.125,179.667,263.824,180.009z"/>
		</g>
		<g>
			<radialGradient id="SVGID_7_" cx="313" cy="217" r="483.4807" gradientUnits="userSpaceOnUse">
				<stop  offset="0" style="stop-color:#5CC9FF"/>
				<stop  offset="1" style="stop-color:#0091D9"/>
			</radialGradient>
			<path fill="url(#SVGID_7_)" d="M516.685,176.965c-6.239,1.245-8.347-11.554-6.361-19.114c1.987-7.57,38.217-63.713,57.33-50.947
				C605.878,125.982,548.54,170.604,516.685,176.965z"/>
		</g>
	</g>
</g>
</svg>
